<svg xmlns="http://www.w3.org/2000/svg" xmlns:xlink="http://www.w3.org/1999/xlink" viewBox="0 0 570 571.34"><path fill="#D2E3FC" d="M317.14 428.29H62.28c-15.19 0-27.51-12.31-27.51-27.51V39.69c0-15.19 12.31-27.51 27.51-27.51h191.1l91.26 91.26v297.34c0 15.19-12.31 27.51-27.5 27.51z"/><path fill="#FFF" d="M98.73 141.37c69.6-69.6 188.45-37.76 213.93 57.32l57.32 213.93-213.93-57.32C60.97 329.82 29.13 210.98 98.73 141.37z"/><path fill="#D2E3FC" d="M181.73 250.65c0-5.91 1.12-10.82 3.37-14.72 2.24-3.9 6.26-8.57 12.06-14.01 4.73-4.26 8.13-7.89 10.2-10.91 2.07-3.01 3.1-6.65 3.1-10.9 0-5.67-1.83-10.25-5.5-13.74s-8.75-5.23-15.25-5.23c-5.91 0-10.61 1.68-14.1 5.05s-6.12 7.54-7.89 12.5l-14.01-5.85c2.6-6.85 6.85-12.91 12.77-18.17 5.91-5.26 13.59-7.89 23.05-7.89 7.09 0 13.39 1.45 18.88 4.34 5.5 2.9 9.75 6.89 12.77 11.97 3.01 5.08 4.52 10.76 4.52 17.02 0 6.5-1.63 12.03-4.88 16.58-3.25 4.55-7.42 9.13-12.5 13.74-3.9 3.55-6.74 6.92-8.51 10.11-1.77 3.19-2.66 6.92-2.66 11.17v7.45h-15.43v-8.51zm-.27 42.65c-2.19-2.19-3.28-4.88-3.28-8.07 0-3.07 1.09-5.7 3.28-7.89 2.19-2.19 4.82-3.28 7.89-3.28 3.19 0 5.88 1.09 8.07 3.28 2.19 2.19 3.28 4.82 3.28 7.89 0 3.19-1.09 5.88-3.28 8.07-2.19 2.19-4.88 3.28-8.07 3.28-3.07 0-5.7-1.09-7.89-3.28z"/><path fill="#1A73E8" d="M344.64 103.44H280.9c-15.2 0-27.52-12.32-27.52-27.52V12.18c35.64 35.64 55.62 55.63 91.26 91.26z"/><path fill="#D2E3FC" d="M370.715 457.254l43.89-43.89 103.18 103.18-43.89 43.89z"/><path fill="#D2E3FC" d="M463.771 550.313l43.89-43.89 10.118 10.118-43.89 43.89z"/><path fill="#E8F0FE" d="M287.926 408.265l77.69-77.689 14.92 14.92-77.69 77.69zM380.54 345.5l-77.69 77.69 31.88 31.88c11.22 11.22 29.41 11.22 40.63 0l37.05-37.05c11.22-11.22 11.22-29.41 0-40.63l-31.87-31.89z"/><g fill="#D2E3FC"><path d="M459.74 455.66l14.86 14.86 5.83-5.83z"/><path d="M459.74 455.66l14.86 14.86 5.83-5.83z"/></g><path fill="#E8F0FE" d="M459.74 455.66l-14.87-14.87 5.83-5.83z"/><path fill="#D2E3FC" d="M441.419 440.175l1.414-1.414 33.8 33.8-1.415 1.413z"/><path fill="none" stroke="#1A73E8" stroke-width="11" stroke-miterlimit="10" d="M302.85 423.18l77.69-77.68"/></svg>
