<?xml version="1.0" encoding="utf-8"?>
<!-- Generator: Adobe Illustrator 17.0.0, SVG Export Plug-In . SVG Version: 6.00 Build 0)  -->
<!DOCTYPE svg PUBLIC "-//W3C//DTD SVG 1.1//EN" "http://www.w3.org/Graphics/SVG/1.1/DTD/svg11.dtd">
<svg version="1.1" id="图层_1" xmlns="http://www.w3.org/2000/svg" xmlns:xlink="http://www.w3.org/1999/xlink" x="0px" y="0px"
	 width="1024px" height="1024px" viewBox="0 0 1024 1024" enable-background="new 0 0 1024 1024" xml:space="preserve">
<g display="none">
	<g>
		<path display="inline" fill="#FFFFFF" d="M708.314,915l-82.767-217H386.66l-77.656,217H111.318l309.233-806h165.304l328.282,806
			H708.314z M561.84,531l-51.925-137.77c-1.828-4.917-3.622-9.766-5.383-14.556c-0.309,0.855-1.062,2.925-1.062,2.925L447.693,531
			H561.84z"/>
		<path display="inline" fill="#0000FF" d="M555.594,154l291.625,716H739.313l-82.766-217H354.969l-77.656,217H176.781l274.703-716
			H555.594 M382.859,576h244.031l-74.797-198.453C529.656,317.203,512.563,267.344,500.813,228
			c-9.875,46.609-23.031,92.563-39.5,137.859L382.859,576 M616.116,64h-60.522H451.484h-61.867l-22.161,57.762l-274.703,716
			L45.855,960h130.926h100.531h63.382l21.356-59.676L418.351,743h176.199l60.672,159.073L677.315,960h61.997h107.906h133.836
			L930.57,836.051l-291.625-716L616.116,64L616.116,64z"/>
	</g>
	<g display="inline">
		<path fill="#FFFFFF" d="M722.091,895l-82.766-217h-266.75l-77.656,217H140.413l293.886-766h138.106l311.99,766H722.091z
			 M590.751,551L528.63,386.176c-9.144-24.592-17.449-47.583-24.884-68.883c-5.762,19.183-12.073,38.22-18.908,57.026L418.878,551
			H590.751z"/>
		<path fill="#0000FF" d="M542.145,174l275.333,676H753.09l-82.766-217h-329.44l-77.656,217h-57.352l259.356-676H542.145
			 M354.044,596h301.758l-84.993-225.507c-22.133-59.526-39.246-109.421-50.832-148.216l-38.729,1.577
			c-9.644,45.522-22.666,90.974-38.702,135.092L354.044,596 M602.666,84h-60.522h-76.912h-61.867l-22.161,57.762l-259.356,676
			L74.95,940h130.926h57.352h63.382l21.356-59.676L404.266,723h204.061l60.672,159.073L691.093,940h61.997h64.388h133.836
			l-50.484-123.949l-275.333-676L602.666,84L602.666,84z M483.712,506l20.895-55.968L525.701,506H483.712L483.712,506z"/>
	</g>
</g>
<g display="none">
	<g>
		<path display="inline" fill="#FFFFFF" d="M723.813,892.5l-82.766-217H370.814l-77.656,217H144.05l291.968-761h134.707l309.953,761
			H723.813z M594.365,553.5l-63.36-168.111c-10.211-27.46-19.376-52.925-27.448-76.257c-6.34,21.684-13.385,43.198-21.099,64.416
			L415.276,553.5H594.365z"/>
		<path display="inline" fill="#FF0000" d="M555.594,154l291.625,716H739.313l-82.766-217H354.969l-77.656,217H176.781l274.703-716
			H555.594 M382.859,576h244.031l-74.797-198.453C529.656,317.203,512.563,267.344,500.813,228
			c-9.875,46.609-23.031,92.562-39.5,137.859L382.859,576 M585.855,109h-30.261H451.484h-30.933l-11.081,28.881l-274.703,716
			L111.318,915h65.463h100.531h31.691l10.678-29.838L386.66,698h238.888l71.719,188.037L708.314,915h30.999h107.906h66.918
			l-25.242-61.974l-291.625-716L585.855,109L585.855,109z M447.693,531l55.777-149.402l0.068-0.181l0.066-0.182
			c0.311-0.855,0.619-1.706,0.928-2.562c1.762,4.79,3.555,9.639,5.383,14.556l0.035,0.094l0.035,0.094L561.84,531H447.693
			L447.693,531z"/>
	</g>
	<g display="inline">
		<path fill="#FFFFFF" d="M737.591,872.5l-82.766-217H356.729l-77.656,217H173.145l276.621-721h107.51l293.661,721H737.591z
			 M623.276,573.5l-73.558-195.166c-19.26-51.799-34.754-96.39-46.174-132.87l-4.068,0.166
			c-9.39,40.805-21.402,81.432-35.785,121.002L386.461,573.5H623.276z"/>
		<path fill="#FF0000" d="M542.145,174l275.333,676H753.09l-82.766-217h-329.44l-77.656,217h-57.352l259.356-676H542.145
			 M354.044,596h301.758l-84.993-225.507c-22.133-59.526-39.246-109.421-50.832-148.216l-38.729,1.578
			c-9.645,45.522-22.666,90.974-38.702,135.092L354.044,596 M572.406,129h-30.261h-76.912h-30.933l-11.081,28.881l-259.356,676
			L140.413,895h65.463h57.352h31.691l10.678-29.838L372.575,678h266.751l71.719,188.037L722.091,895h30.999h64.388h66.918
			l-25.242-61.974l-275.333-676L572.406,129L572.406,129z M418.878,551l65.825-176.315l0.068-0.183l0.067-0.183
			c6.836-18.806,13.147-37.843,18.908-57.027c7.435,21.3,15.74,44.291,24.884,68.884l0.035,0.094l0.035,0.094L590.751,551H418.878
			L418.878,551z"/>
	</g>
</g>
<g>
	<path display="none" fill="#FFFFFF" d="M176.781,870l274.703-716h104.109l291.625,716H739.313l-82.766-217H354.969l-77.656,217
		H176.781z M382.859,576h244.031l-74.797-198.453C529.656,317.203,512.563,267.344,500.813,228
		c-9.875,46.609-23.031,92.563-39.5,137.859L382.859,576z"/>
	<g>
		<path fill="#FFFFFF" d="M723.469,893l-82.766-217H371.167L293.51,893H143.322l292.352-762h135.387l310.361,762H723.469z
			 M593.643,553l-63.142-167.529c-9.982-26.848-18.965-51.789-26.905-74.695c-6.22,21.157-13.11,42.148-20.638,62.858L415.997,553
			H593.643z"/>
		<path fill="#0000FF" d="M540.8,176l273.704,672h-60.036l-82.766-217H339.475l-77.656,217h-53.034l257.822-672H540.8 M351.163,598
			h307.53L572.68,369.788c-22.114-59.477-39.214-109.331-50.787-148.083l-42.602,1.735c-9.625,45.431-22.62,90.791-38.624,134.821
			L351.163,598 M601.322,86H540.8h-74.193H404.74l-22.161,57.762l-257.822,672L77.859,938h130.926h53.034h63.382l21.356-59.676
			L402.857,721h206.847l60.672,159.073L692.47,938h61.997h60.036H948.34l-50.484-123.949l-273.704-672L601.322,86L601.322,86z
			 M480.831,508l23.767-63.661L528.592,508H480.831L480.831,508z"/>
	</g>
</g>
<g>
	<path display="none" fill="#FFFFFF" d="M176.781,870l274.703-716h104.109l291.625,716H739.313l-82.766-217H354.969l-77.656,217
		H176.781z M382.859,576h244.031l-74.797-198.453C529.656,317.203,512.563,267.344,500.813,228
		c-9.875,46.609-23.031,92.563-39.5,137.859L382.859,576z"/>
	<g>
		<path fill="#FFFFFF" d="M738.969,870.5l-82.766-217H355.321l-77.656,217H176.054l275.087-717h104.79l292.032,717H738.969z
			 M626.168,575.5L551.59,377.629c-19.243-51.757-34.722-96.301-46.129-132.737l-7.941,0.323
			c-9.37,40.712-21.355,81.248-35.707,120.732L383.58,575.5H626.168z"/>
		<path fill="#FF0000" d="M540.8,176l273.704,672h-60.036l-82.766-217H339.476l-77.656,217h-53.034l257.822-672H540.8 M351.163,598
			h307.53L572.68,369.788c-22.114-59.477-39.214-109.33-50.787-148.083l-42.602,1.735c-9.625,45.431-22.62,90.791-38.624,134.821
			L351.163,598 M571.061,131H540.8h-74.192h-30.933l-11.081,28.881l-257.822,672L143.322,893h65.463h53.034h31.691l10.678-29.838
			L371.167,676h269.537l71.719,188.037L723.469,893h30.999h60.036h66.918l-25.242-61.974l-273.704-672L571.061,131L571.061,131z
			 M415.997,553l66.827-179l0.068-0.183l0.067-0.183c7.528-20.711,14.418-41.702,20.637-62.858
			c7.94,22.907,16.922,47.847,26.905,74.695l0.035,0.094l0.035,0.094L593.643,553H415.997L415.997,553z"/>
	</g>
</g>
</svg>
