<svg width="34" height="34" xmlns="http://www.w3.org/2000/svg">

 <g>
  <title>background</title>
  <rect fill="none" id="canvas_background" height="36" width="36" y="-1" x="-1"/>
 </g>
 <g>
  <title>Layer 1</title>
  <path stroke="null" id="svg_2" fill="#e74c3c" d="m16.999999,0.951102c-5.123665,0 -9.277169,4.254888 -9.277169,9.503617c0,1.68808 0.442521,3.266868 1.195827,4.640141c0.125126,0.228087 0.256282,0.45261 0.398686,0.668817l7.682656,13.698276l7.682656,-13.698276c0.118284,-0.179381 0.220333,-0.369453 0.325861,-0.55715l0.073058,-0.111668c0.75261,-1.373273 1.195595,-2.952061 1.195595,-4.640141c0,-5.248729 -4.153853,-9.503617 -9.277169,-9.503617zm0,4.751809c2.561658,0 4.638585,2.127504 4.638585,4.751809c0,2.624186 -2.076926,4.751809 -4.638585,4.751809c-2.561774,0 -4.638585,-2.127622 -4.638585,-4.751809c0,-2.624305 2.07681,-4.751809 4.638585,-4.751809z"/>
  <path stroke="null" stroke-width="0" id="svg_3" fill="#c0392b" d="m17.054348,4.255465c-3.376709,0 -6.114126,2.737416 -6.114126,6.114126c0,3.37622 2.737416,6.114126 6.114126,6.114126c3.37622,0 6.114126,-2.737905 6.114126,-6.114126c0,-3.376709 -2.737906,-6.114126 -6.114126,-6.114126zm0,2.44565c2.026221,0 3.668476,1.642376 3.668476,3.668475s-1.642254,3.668475 -3.668476,3.668475s-3.668476,-1.642376 -3.668476,-3.668475s1.642254,-3.668475 3.668476,-3.668475z"/>
 </g>
</svg>